<svg id="visual" viewBox="0 0 960 300" width="100%" height="100%" preserveAspectRatio="none" xmlns="http://www.w3.org/2000/svg" xmlns:xlink="http://www.w3.org/1999/xlink" version="1.1"><rect x="0" y="0" width="960" height="300" fill="#001220"></rect><path d="M0 153L22.8 145.5C45.7 138 91.3 123 137 123.7C182.7 124.3 228.3 140.7 274 147.7C319.7 154.7 365.3 152.3 411.2 146.5C457 140.7 503 131.3 548.8 129C594.7 126.7 640.3 131.3 686 128.5C731.7 125.7 777.3 115.3 823 122.5C868.7 129.7 914.3 154.3 937.2 166.7L960 179L960 301L937.2 301C914.3 301 868.7 301 823 301C777.3 301 731.7 301 686 301C640.3 301 594.7 301 548.8 301C503 301 457 301 411.2 301C365.3 301 319.7 301 274 301C228.3 301 182.7 301 137 301C91.3 301 45.7 301 22.8 301L0 301Z" fill="#f7770f"></path><path d="M0 188L22.8 181.3C45.7 174.7 91.3 161.3 137 153.2C182.7 145 228.3 142 274 143.2C319.7 144.3 365.3 149.7 411.2 154.3C457 159 503 163 548.8 166.2C594.7 169.3 640.3 171.7 686 170.2C731.7 168.7 777.3 163.3 823 160.7C868.7 158 914.3 158 937.2 158L960 158L960 301L937.2 301C914.3 301 868.7 301 823 301C777.3 301 731.7 301 686 301C640.3 301 594.7 301 548.8 301C503 301 457 301 411.2 301C365.3 301 319.7 301 274 301C228.3 301 182.7 301 137 301C91.3 301 45.7 301 22.8 301L0 301Z" fill="#ff4745"></path><path d="M0 191L22.8 191.7C45.7 192.3 91.3 193.7 137 197.2C182.7 200.7 228.3 206.3 274 209.7C319.7 213 365.3 214 411.2 213.3C457 212.7 503 210.3 548.8 204.5C594.7 198.7 640.3 189.3 686 191.2C731.7 193 777.3 206 823 208.3C868.7 210.7 914.3 202.3 937.2 198.2L960 194L960 301L937.2 301C914.3 301 868.7 301 823 301C777.3 301 731.7 301 686 301C640.3 301 594.7 301 548.8 301C503 301 457 301 411.2 301C365.3 301 319.7 301 274 301C228.3 301 182.7 301 137 301C91.3 301 45.7 301 22.8 301L0 301Z" fill="#ff0074"></path><path d="M0 236L22.8 231.2C45.7 226.3 91.3 216.7 137 216C182.7 215.3 228.3 223.7 274 230.2C319.7 236.7 365.3 241.3 411.2 239.2C457 237 503 228 548.8 227.8C594.7 227.7 640.3 236.3 686 238.2C731.7 240 777.3 235 823 230.8C868.7 226.7 914.3 223.3 937.2 221.7L960 220L960 301L937.2 301C914.3 301 868.7 301 823 301C777.3 301 731.7 301 686 301C640.3 301 594.7 301 548.8 301C503 301 457 301 411.2 301C365.3 301 319.7 301 274 301C228.3 301 182.7 301 137 301C91.3 301 45.7 301 22.8 301L0 301Z" fill="#e300b1"></path><path d="M0 256L22.8 259.5C45.7 263 91.3 270 137 272.3C182.7 274.7 228.3 272.3 274 268.5C319.7 264.7 365.3 259.3 411.2 256.5C457 253.7 503 253.3 548.8 255C594.7 256.7 640.3 260.3 686 263.2C731.7 266 777.3 268 823 267.7C868.7 267.3 914.3 264.7 937.2 263.3L960 262L960 301L937.2 301C914.3 301 868.7 301 823 301C777.3 301 731.7 301 686 301C640.3 301 594.7 301 548.8 301C503 301 457 301 411.2 301C365.3 301 319.7 301 274 301C228.3 301 182.7 301 137 301C91.3 301 45.7 301 22.8 301L0 301Z" fill="#6600ff"></path></svg>