<svg id="visual" viewBox="0 0 960 300" width="960" height="300" xmlns="http://www.w3.org/2000/svg" xmlns:xlink="http://www.w3.org/1999/xlink" version="1.1"><rect x="0" y="0" width="960" height="300" fill="#001220"></rect><path d="M0 188L22.8 185.3C45.7 182.7 91.3 177.3 137 168C182.7 158.7 228.3 145.3 274 142.5C319.7 139.7 365.3 147.3 411.2 158C457 168.7 503 182.3 548.8 179.7C594.7 177 640.3 158 686 146.2C731.7 134.3 777.3 129.7 823 130.2C868.7 130.7 914.3 136.3 937.2 139.2L960 142L960 0L937.2 0C914.3 0 868.7 0 823 0C777.3 0 731.7 0 686 0C640.3 0 594.7 0 548.8 0C503 0 457 0 411.2 0C365.3 0 319.7 0 274 0C228.3 0 182.7 0 137 0C91.3 0 45.7 0 22.8 0L0 0Z" fill="#f7770f"></path><path d="M0 123L22.8 118.8C45.7 114.7 91.3 106.3 137 109.5C182.7 112.7 228.3 127.3 274 134.7C319.7 142 365.3 142 411.2 141.5C457 141 503 140 548.8 138.2C594.7 136.3 640.3 133.7 686 134.7C731.7 135.7 777.3 140.3 823 138.8C868.7 137.3 914.3 129.7 937.2 125.8L960 122L960 0L937.2 0C914.3 0 868.7 0 823 0C777.3 0 731.7 0 686 0C640.3 0 594.7 0 548.8 0C503 0 457 0 411.2 0C365.3 0 319.7 0 274 0C228.3 0 182.7 0 137 0C91.3 0 45.7 0 22.8 0L0 0Z" fill="#ff4745"></path><path d="M0 85L22.8 90C45.7 95 91.3 105 137 108.7C182.7 112.3 228.3 109.7 274 110.8C319.7 112 365.3 117 411.2 113.2C457 109.3 503 96.7 548.8 93.5C594.7 90.3 640.3 96.7 686 100.8C731.7 105 777.3 107 823 108.5C868.7 110 914.3 111 937.2 111.5L960 112L960 0L937.2 0C914.3 0 868.7 0 823 0C777.3 0 731.7 0 686 0C640.3 0 594.7 0 548.8 0C503 0 457 0 411.2 0C365.3 0 319.7 0 274 0C228.3 0 182.7 0 137 0C91.3 0 45.7 0 22.8 0L0 0Z" fill="#ff0074"></path><path d="M0 54L22.8 57.7C45.7 61.3 91.3 68.7 137 73.2C182.7 77.7 228.3 79.3 274 82C319.7 84.7 365.3 88.3 411.2 89.5C457 90.7 503 89.3 548.8 86.2C594.7 83 640.3 78 686 78C731.7 78 777.3 83 823 83.7C868.7 84.3 914.3 80.7 937.2 78.8L960 77L960 0L937.2 0C914.3 0 868.7 0 823 0C777.3 0 731.7 0 686 0C640.3 0 594.7 0 548.8 0C503 0 457 0 411.2 0C365.3 0 319.7 0 274 0C228.3 0 182.7 0 137 0C91.3 0 45.7 0 22.8 0L0 0Z" fill="#e300b1"></path><path d="M0 52L22.8 51.5C45.7 51 91.3 50 137 48.3C182.7 46.7 228.3 44.3 274 41.3C319.7 38.3 365.3 34.7 411.2 34.2C457 33.7 503 36.3 548.8 39.2C594.7 42 640.3 45 686 43.3C731.7 41.7 777.3 35.3 823 37C868.7 38.7 914.3 48.3 937.2 53.2L960 58L960 0L937.2 0C914.3 0 868.7 0 823 0C777.3 0 731.7 0 686 0C640.3 0 594.7 0 548.8 0C503 0 457 0 411.2 0C365.3 0 319.7 0 274 0C228.3 0 182.7 0 137 0C91.3 0 45.7 0 22.8 0L0 0Z" fill="#6600ff"></path></svg>