<svg id="visual" viewBox="0 0 900 600" width="100%" height="100%" preserveAspectRatio="none" xmlns="http://www.w3.org/2000/svg" xmlns:xlink="http://www.w3.org/1999/xlink" version="1.1"><rect x="0" y="0" width="900" height="600" fill="#001220"></rect><defs><linearGradient id="grad1_0" x1="33.3%" y1="0%" x2="100%" y2="100%"><stop offset="20%" stop-color="#001220" stop-opacity="1"></stop><stop offset="80%" stop-color="#001220" stop-opacity="1"></stop></linearGradient></defs><defs><linearGradient id="grad2_0" x1="0%" y1="0%" x2="66.7%" y2="100%"><stop offset="20%" stop-color="#001220" stop-opacity="1"></stop><stop offset="80%" stop-color="#001220" stop-opacity="1"></stop></linearGradient></defs><g transform="translate(900, 0)"><path d="M0 486.7C-63.7 480.7 -127.4 474.6 -186.3 449.7C-245.2 424.8 -299.3 381.1 -328.8 328.8C-358.3 276.6 -363 215.8 -385.3 159.6C-407.5 103.4 -447.1 51.7 -486.7 0L0 0Z" fill="#FBAE3C"></path></g><g transform="translate(0, 600)"><path d="M0 -486.7C61.3 -466 122.5 -445.2 171.8 -414.8C221.1 -384.4 258.4 -344.4 307.6 -307.6C356.8 -270.7 417.9 -237 449.7 -186.3C481.5 -135.5 484.1 -67.8 486.7 0L0 0Z" fill="#FBAE3C"></path></g></svg>