<svg id="visual" viewBox="0 0 900 600" width="900" height="600" xmlns="http://www.w3.org/2000/svg" xmlns:xlink="http://www.w3.org/1999/xlink" version="1.1"><g stroke-width="1" stroke-linejoin="bevel"><path d="M393 336L334 306L328 379Z" fill="#24252e" stroke="#24252e"></path><path d="M328 379L362 423L393 336Z" fill="#1e202b" stroke="#1e202b"></path><path d="M394 223L302 238L334 306Z" fill="#061323" stroke="#061323"></path><path d="M214 326L239 409L328 379Z" fill="#24252e" stroke="#24252e"></path><path d="M393 336L394 223L334 306Z" fill="#0b1625" stroke="#0b1625"></path><path d="M214 326L328 379L334 306Z" fill="#27272f" stroke="#27272f"></path><path d="M328 379L270 474L362 423Z" fill="#1e202b" stroke="#1e202b"></path><path d="M302 238L214 326L334 306Z" fill="#001122" stroke="#001122"></path><path d="M239 409L270 474L328 379Z" fill="#0b1625" stroke="#0b1625"></path><path d="M270 474L396 512L362 423Z" fill="#0f1826" stroke="#0f1826"></path><path d="M530 425L531 299L393 336Z" fill="#0b1625" stroke="#0b1625"></path><path d="M393 336L531 299L394 223Z" fill="#1b1e2a" stroke="#1b1e2a"></path><path d="M530 425L393 336L362 423Z" fill="#061323" stroke="#061323"></path><path d="M488 500L530 425L362 423Z" fill="#0f1826" stroke="#0f1826"></path><path d="M531 299L473 183L394 223Z" fill="#1e202b" stroke="#1e202b"></path><path d="M394 223L297 135L302 238Z" fill="#061323" stroke="#061323"></path><path d="M396 512L488 500L362 423Z" fill="#0b1625" stroke="#0b1625"></path><path d="M425 124L297 135L394 223Z" fill="#061323" stroke="#061323"></path><path d="M302 238L217 165L214 326Z" fill="#131a28" stroke="#131a28"></path><path d="M297 135L217 165L302 238Z" fill="#24252e" stroke="#24252e"></path><path d="M573 482L571 410L530 425Z" fill="#131a28" stroke="#131a28"></path><path d="M530 425L571 410L531 299Z" fill="#131a28" stroke="#131a28"></path><path d="M473 183L425 124L394 223Z" fill="#21222d" stroke="#21222d"></path><path d="M130 223L121 307L214 326Z" fill="#0f1826" stroke="#0f1826"></path><path d="M214 326L88 409L239 409Z" fill="#131a28" stroke="#131a28"></path><path d="M239 409L177 533L270 474Z" fill="#0b1625" stroke="#0b1625"></path><path d="M571 410L584 291L531 299Z" fill="#1b1e2a" stroke="#1b1e2a"></path><path d="M531 299L608 193L473 183Z" fill="#24252e" stroke="#24252e"></path><path d="M473 183L507 103L425 124Z" fill="#061323" stroke="#061323"></path><path d="M217 165L130 223L214 326Z" fill="#0f1826" stroke="#0f1826"></path><path d="M300 600L369 600L396 512Z" fill="#1b1e2a" stroke="#1b1e2a"></path><path d="M396 512L463 600L488 500Z" fill="#131a28" stroke="#131a28"></path><path d="M300 600L396 512L270 474Z" fill="#0f1826" stroke="#0f1826"></path><path d="M108 496L177 533L239 409Z" fill="#24252e" stroke="#24252e"></path><path d="M488 500L573 482L530 425Z" fill="#001122" stroke="#001122"></path><path d="M737 397L678 262L584 291Z" fill="#131a28" stroke="#131a28"></path><path d="M595 600L573 482L488 500Z" fill="#171c29" stroke="#171c29"></path><path d="M223 600L300 600L270 474Z" fill="#24252e" stroke="#24252e"></path><path d="M0 292L88 409L121 307Z" fill="#061323" stroke="#061323"></path><path d="M121 307L88 409L214 326Z" fill="#1b1e2a" stroke="#1b1e2a"></path><path d="M369 600L463 600L396 512Z" fill="#21222d" stroke="#21222d"></path><path d="M63 600L223 600L177 533Z" fill="#1e202b" stroke="#1e202b"></path><path d="M177 533L223 600L270 474Z" fill="#27272f" stroke="#27272f"></path><path d="M561 120L507 103L473 183Z" fill="#21222d" stroke="#21222d"></path><path d="M221 0L177 79L297 135Z" fill="#1e202b" stroke="#1e202b"></path><path d="M88 409L108 496L239 409Z" fill="#131a28" stroke="#131a28"></path><path d="M584 291L608 193L531 299Z" fill="#171c29" stroke="#171c29"></path><path d="M678 262L608 193L584 291Z" fill="#061323" stroke="#061323"></path><path d="M608 193L561 120L473 183Z" fill="#27272f" stroke="#27272f"></path><path d="M297 135L177 79L217 165Z" fill="#0f1826" stroke="#0f1826"></path><path d="M217 165L109 136L130 223Z" fill="#061323" stroke="#061323"></path><path d="M376 0L297 135L425 124Z" fill="#24252e" stroke="#24252e"></path><path d="M177 79L109 136L217 165Z" fill="#0b1625" stroke="#0b1625"></path><path d="M130 223L0 292L121 307Z" fill="#061323" stroke="#061323"></path><path d="M737 397L584 291L571 410Z" fill="#0f1826" stroke="#0f1826"></path><path d="M608 193L669 111L561 120Z" fill="#0f1826" stroke="#0f1826"></path><path d="M469 0L425 124L507 103Z" fill="#001122" stroke="#001122"></path><path d="M469 0L376 0L425 124Z" fill="#171c29" stroke="#171c29"></path><path d="M678 262L673 218L608 193Z" fill="#171c29" stroke="#171c29"></path><path d="M376 0L308 0L297 135Z" fill="#061323" stroke="#061323"></path><path d="M463 600L595 600L488 500Z" fill="#0f1826" stroke="#0f1826"></path><path d="M704 514L737 397L571 410Z" fill="#0f1826" stroke="#0f1826"></path><path d="M0 219L0 292L130 223Z" fill="#21222d" stroke="#21222d"></path><path d="M88 409L0 426L108 496Z" fill="#171c29" stroke="#171c29"></path><path d="M0 292L0 426L88 409Z" fill="#1b1e2a" stroke="#1b1e2a"></path><path d="M108 496L63 600L177 533Z" fill="#24252e" stroke="#24252e"></path><path d="M611 0L469 0L507 103Z" fill="#061323" stroke="#061323"></path><path d="M611 0L507 103L561 120Z" fill="#1b1e2a" stroke="#1b1e2a"></path><path d="M90 0L0 117L109 136Z" fill="#24252e" stroke="#24252e"></path><path d="M308 0L221 0L297 135Z" fill="#0f1826" stroke="#0f1826"></path><path d="M109 136L0 219L130 223Z" fill="#24252e" stroke="#24252e"></path><path d="M0 117L0 219L109 136Z" fill="#171c29" stroke="#171c29"></path><path d="M0 520L63 600L108 496Z" fill="#27272f" stroke="#27272f"></path><path d="M704 514L571 410L573 482Z" fill="#001122" stroke="#001122"></path><path d="M678 262L795 275L673 218Z" fill="#001122" stroke="#001122"></path><path d="M595 600L704 514L573 482Z" fill="#27272f" stroke="#27272f"></path><path d="M0 426L0 520L108 496Z" fill="#21222d" stroke="#21222d"></path><path d="M828 210L669 111L673 218Z" fill="#131a28" stroke="#131a28"></path><path d="M673 218L669 111L608 193Z" fill="#1b1e2a" stroke="#1b1e2a"></path><path d="M90 0L109 136L177 79Z" fill="#24252e" stroke="#24252e"></path><path d="M595 600L697 600L704 514Z" fill="#001122" stroke="#001122"></path><path d="M780 502L789 406L737 397Z" fill="#001122" stroke="#001122"></path><path d="M669 111L611 0L561 120Z" fill="#061323" stroke="#061323"></path><path d="M221 0L90 0L177 79Z" fill="#21222d" stroke="#21222d"></path><path d="M0 520L0 600L63 600Z" fill="#24252e" stroke="#24252e"></path><path d="M780 502L737 397L704 514Z" fill="#061323" stroke="#061323"></path><path d="M737 397L795 275L678 262Z" fill="#0b1625" stroke="#0b1625"></path><path d="M789 406L795 275L737 397Z" fill="#1e202b" stroke="#1e202b"></path><path d="M669 111L739 0L611 0Z" fill="#001122" stroke="#001122"></path><path d="M697 600L780 502L704 514Z" fill="#171c29" stroke="#171c29"></path><path d="M90 0L0 0L0 117Z" fill="#0b1625" stroke="#0b1625"></path><path d="M900 289L795 275L789 406Z" fill="#171c29" stroke="#171c29"></path><path d="M900 289L828 210L795 275Z" fill="#24252e" stroke="#24252e"></path><path d="M795 275L828 210L673 218Z" fill="#0f1826" stroke="#0f1826"></path><path d="M829 79L739 0L669 111Z" fill="#1b1e2a" stroke="#1b1e2a"></path><path d="M697 600L812 600L780 502Z" fill="#131a28" stroke="#131a28"></path><path d="M900 431L900 289L789 406Z" fill="#1e202b" stroke="#1e202b"></path><path d="M828 210L829 79L669 111Z" fill="#21222d" stroke="#21222d"></path><path d="M900 431L789 406L900 469Z" fill="#0f1826" stroke="#0f1826"></path><path d="M828 210L900 183L829 79Z" fill="#1e202b" stroke="#1e202b"></path><path d="M900 469L789 406L780 502Z" fill="#1b1e2a" stroke="#1b1e2a"></path><path d="M812 600L900 469L780 502Z" fill="#001122" stroke="#001122"></path><path d="M829 79L801 0L739 0Z" fill="#061323" stroke="#061323"></path><path d="M900 289L900 183L828 210Z" fill="#001122" stroke="#001122"></path><path d="M829 79L900 0L801 0Z" fill="#21222d" stroke="#21222d"></path><path d="M812 600L900 600L900 469Z" fill="#131a28" stroke="#131a28"></path><path d="M900 183L900 65L829 79Z" fill="#1e202b" stroke="#1e202b"></path><path d="M900 65L900 0L829 79Z" fill="#27272f" stroke="#27272f"></path></g></svg>